<svg width="16" height="16" viewBox="0 0 16 16" fill="none" xmlns="http://www.w3.org/2000/svg">
<g clip-path="url(#clip0_2_12921)">
<path d="M16 8.14086C16 7.41661 15.4107 6.82733 14.6864 6.82733H2.20441V2.55797C2.20441 2.06649 2.60424 1.66666 3.09571 1.66666H3.32906C3.57052 1.66666 3.79834 1.76482 3.96377 1.93235L3.92421 1.97191C3.25989 2.63624 3.25989 3.71712 3.92421 4.38152L4.14958 4.60689C4.24892 4.70623 4.37914 4.75594 4.50943 4.75594C4.63972 4.75594 4.76987 4.7063 4.86928 4.60689L7.09435 2.38182C7.29304 2.18313 7.29304 1.86087 7.09435 1.66218L6.86898 1.43682C6.54722 1.11498 6.11931 0.937788 5.66425 0.937788C5.31637 0.937788 4.98459 1.04161 4.70378 1.23414C4.34834 0.865607 3.85399 0.648926 3.32913 0.648926H3.09578C2.04311 0.648926 1.18667 1.50529 1.18667 2.55804V6.83384C0.521716 6.8979 0 7.45959 0 8.14093C0 8.69814 0.349351 9.17428 0.840123 9.36478V11.0419C0.840123 12.5212 1.89301 13.7592 3.28873 14.0461L2.85215 14.4827C2.65346 14.6814 2.65346 15.0035 2.85215 15.2022C2.95149 15.3016 3.08171 15.3513 3.212 15.3513C3.34229 15.3513 3.47244 15.3017 3.57185 15.2022L4.66597 14.1087H11.3337L12.4282 15.2022C12.5275 15.3016 12.6577 15.3513 12.7881 15.3513C12.9183 15.3513 13.0485 15.3017 13.1479 15.2022C13.3466 15.0035 13.3466 14.6814 13.1479 14.4827L12.7113 14.0461C14.1072 13.7592 15.16 12.5213 15.16 11.0419V9.36478C15.6506 9.17414 16 8.69814 16 8.14086ZM5.66425 1.95546C5.78229 1.95546 5.8957 1.985 5.9961 2.04066L4.52847 3.50828C4.3846 3.2475 4.42311 2.91229 4.64399 2.69147L5.17915 2.15632C5.30874 2.0268 5.48103 1.95546 5.66425 1.95546ZM1.3136 7.84514H14.6864C14.8495 7.84514 14.9823 7.97781 14.9823 8.141C14.9823 8.30406 14.8495 8.4368 14.6864 8.4368H1.3136C1.15048 8.4368 1.01781 8.30406 1.01781 8.141C1.01781 7.97781 1.15048 7.84514 1.3136 7.84514ZM14.1421 11.0419C14.1421 12.1717 13.2228 13.0909 12.0928 13.0909H3.90713C2.77717 13.0909 1.85786 12.1718 1.85786 11.0419V9.4691H14.1421V11.0419Z" fill="#626262"/>
</g>
<defs>
<clipPath id="clip0_2_12921">
<rect width="16" height="16" fill="white"/>
</clipPath>
</defs>
</svg>
